<?xml version="1.0" standalone="no"?>
<!DOCTYPE svg PUBLIC "-//W3C//DTD SVG 20010904//EN"
 "http://www.w3.org/TR/2001/REC-SVG-20010904/DTD/svg10.dtd">
<svg version="1.0" xmlns="http://www.w3.org/2000/svg"
 width="700.000000pt" height="700.000000pt" viewBox="0 0 700.000000 700.000000"
 preserveAspectRatio="xMidYMid meet">
<metadata>
Created by potrace 1.11, written by Peter Selinger 2001-2013
</metadata>
<g transform="translate(0.000000,700.000000) scale(0.100000,-0.100000)"
fill="#000000" stroke="none">
<path d="M439 5358 c-1 -17 -1 -3711 0 -3720 1 -5 1378 -8 3061 -8 1683 0
3060 3 3061 8 1 9 1 3692 0 3715 -1 16 -154 17 -3061 17 -2441 0 -3060 -3
-3061 -12z m5905 -1858 l0 -1645 -2844 0 -2844 0 -1 1640 c-1 902 1 1643 3
1648 2 4 1282 6 2845 5 l2841 -3 0 -1645z"/>
<path d="M1295 4510 c-1 -3 -3 -459 -4 -1015 l-1 -1010 298 0 297 0 5 578 5
579 75 -94 c41 -51 87 -109 102 -128 14 -19 38 -48 52 -65 14 -16 29 -34 34
-40 4 -5 51 -65 105 -132 53 -68 103 -131 111 -140 8 -10 36 -44 62 -75 25
-32 49 -58 53 -57 3 0 136 164 296 364 159 201 291 362 294 360 2 -3 5 -262 5
-577 l1 -572 275 -1 c151 0 285 1 297 3 l22 4 0 1008 c0 776 -3 1009 -12 1012
-7 2 -141 4 -299 3 l-286 -1 -89 -110 c-48 -61 -101 -128 -118 -149 -35 -44
-129 -161 -153 -190 -10 -11 -66 -82 -126 -158 -60 -76 -112 -134 -116 -130
-4 4 -58 71 -119 148 -62 77 -117 147 -124 155 -7 8 -39 49 -72 90 -33 41 -65
82 -72 90 -7 8 -54 67 -104 130 -50 63 -93 117 -96 119 -5 7 -594 7 -598 1z"/>
<path d="M4722 4010 c0 -278 -1 -513 -1 -522 -1 -16 -24 -18 -295 -20 l-294
-3 90 -100 c50 -55 136 -150 192 -211 56 -60 121 -133 146 -160 53 -60 203
-224 280 -309 31 -33 71 -77 90 -99 19 -21 48 -52 63 -69 l28 -31 36 40 c20
21 54 59 77 84 35 39 121 133 277 305 21 22 50 54 65 71 16 17 61 67 100 110
40 44 131 144 203 224 l132 145 -296 3 -295 2 0 523 0 522 -298 0 -299 0 -1
-505z"/>
</g>
</svg>
